<?xml version="1.0" encoding="UTF-8" standalone="no"?>
<!-- Created with Inkscape (http://www.inkscape.org/) -->

<svg
   xmlns:dc="http://purl.org/dc/elements/1.1/"
   xmlns:cc="http://creativecommons.org/ns#"
   xmlns:rdf="http://www.w3.org/1999/02/22-rdf-syntax-ns#"
   xmlns:svg="http://www.w3.org/2000/svg"
   xmlns="http://www.w3.org/2000/svg"
   xmlns:sodipodi="http://sodipodi.sourceforge.net/DTD/sodipodi-0.dtd"
   xmlns:inkscape="http://www.inkscape.org/namespaces/inkscape"
   id="svg2"
   version="1.1"
   inkscape:version="0.48.2 r9819"
   width="1292.0625"
   height="672.53128"
   xml:space="preserve"
   sodipodi:docname="reactant_uml.svg"><metadata
     id="metadata8"><rdf:RDF><cc:Work
         rdf:about=""><dc:format>image/svg+xml</dc:format><dc:type
           rdf:resource="http://purl.org/dc/dcmitype/StillImage" /><dc:title></dc:title></cc:Work></rdf:RDF></metadata><defs
     id="defs6"><marker
   inkscape:stockid="Arrow2Lend"
   orient="auto"
   refY="0.0"
   refX="0.0"
   id="Arrow2Lend"
   style="overflow:visible;"><path
     id="path5264"
     style="font-size:12.0;fill-rule:evenodd;stroke-width:0.62500000;stroke-linejoin:round;"
     d="M 8.7185878,4.0337352 L -2.2072895,0.016013256 L 8.7185884,-4.0017078 C 6.9730900,-1.6296469 6.9831476,1.6157441 8.7185878,4.0337352 z "
     transform="scale(1.1) rotate(180) translate(1,0)" /></marker><marker
   inkscape:stockid="Arrow1Mend"
   orient="auto"
   refY="0.0"
   refX="0.0"
   id="Arrow1Mend"
   style="overflow:visible;"><path
     id="path5252"
     d="M 0.0,0.0 L 5.0,-5.0 L -12.5,0.0 L 5.0,5.0 L 0.0,0.0 z "
     style="fill-rule:evenodd;stroke:#000000;stroke-width:1.0pt;marker-start:none;"
     transform="scale(0.4) rotate(180) translate(10,0)" /></marker><marker
   inkscape:stockid="Arrow1Lend"
   orient="auto"
   refY="0.0"
   refX="0.0"
   id="Arrow1Lend"
   style="overflow:visible;"><path
     id="path5246"
     d="M 0.0,0.0 L 5.0,-5.0 L -12.5,0.0 L 5.0,5.0 L 0.0,0.0 z "
     style="fill-rule:evenodd;stroke:#000000;stroke-width:1.0pt;marker-start:none;"
     transform="scale(0.8) rotate(180) translate(12.5,0)" /></marker><marker
   inkscape:stockid="EmptyTriangleInL"
   orient="auto"
   refY="0.0"
   refX="0.0"
   id="EmptyTriangleInL"
   style="overflow:visible"><path
     id="path5395"
     d="M 5.77,0.0 L -2.88,5.0 L -2.88,-5.0 L 5.77,0.0 z "
     style="fill-rule:evenodd;fill:#FFFFFF;stroke:#000000;stroke-width:1.0pt;marker-start:none"
     transform="scale(-0.8) translate(-6,0)" /></marker><marker
   inkscape:stockid="EmptyDiamondLstart"
   orient="auto"
   refY="0.0"
   refX="0.0"
   id="EmptyDiamondLstart"
   style="overflow:visible"><path
     id="path5359"
     d="M 0,-7.0710768 L -7.0710894,0 L 0,7.0710589 L 7.0710462,0 L 0,-7.0710768 z "
     style="fill-rule:evenodd;fill:#FFFFFF;stroke:#000000;stroke-width:1.0pt;marker-start:none"
     transform="scale(0.8) translate(7,0)" /></marker><marker
   inkscape:stockid="DiamondLstart"
   orient="auto"
   refY="0.0"
   refX="0.0"
   id="DiamondLstart"
   style="overflow:visible"><path
     id="path5332"
     d="M 0,-7.0710768 L -7.0710894,0 L 0,7.0710589 L 7.0710462,0 L 0,-7.0710768 z "
     style="fill-rule:evenodd;stroke:#000000;stroke-width:1.0pt;marker-start:none"
     transform="scale(0.8) translate(7,0)" /></marker><marker
   inkscape:stockid="Arrow2Lend"
   orient="auto"
   refY="0"
   refX="0"
   id="marker26652"
   style="overflow:visible"><path
     inkscape:connector-curvature="0"
     id="path26654"
     style="font-size:12px;fill-rule:evenodd;stroke-width:0.625;stroke-linejoin:round"
     d="M 8.7185878,4.0337352 -2.2072895,0.01601326 8.7185884,-4.0017078 c -1.7454984,2.3720609 -1.7354408,5.6174519 -6e-7,8.035443 z"
     transform="matrix(-1.1,0,0,-1.1,-1.1,0)" /></marker><marker
   inkscape:stockid="Arrow2Lend"
   orient="auto"
   refY="0"
   refX="0"
   id="marker3135"
   style="overflow:visible"><path
     inkscape:connector-curvature="0"
     id="path3137"
     style="font-size:12px;fill-rule:evenodd;stroke-width:0.625;stroke-linejoin:round"
     d="M 8.7185878,4.0337352 -2.2072895,0.01601326 8.7185884,-4.0017078 c -1.7454984,2.3720609 -1.7354408,5.6174519 -6e-7,8.035443 z"
     transform="matrix(-1.1,0,0,-1.1,-1.1,0)" /></marker><marker
   inkscape:stockid="Arrow2Lend"
   orient="auto"
   refY="0"
   refX="0"
   id="marker3139"
   style="overflow:visible"><path
     inkscape:connector-curvature="0"
     id="path3141"
     style="font-size:12px;fill-rule:evenodd;stroke-width:0.625;stroke-linejoin:round"
     d="M 8.7185878,4.0337352 -2.2072895,0.01601326 8.7185884,-4.0017078 c -1.7454984,2.3720609 -1.7354408,5.6174519 -6e-7,8.035443 z"
     transform="matrix(-1.1,0,0,-1.1,-1.1,0)" /></marker><marker
   inkscape:stockid="EmptyDiamondLstart"
   orient="auto"
   refY="0"
   refX="0"
   id="marker26130"
   style="overflow:visible"><path
     inkscape:connector-curvature="0"
     id="path26132"
     d="M 0,-7.0710768 -7.0710894,0 0,7.0710589 7.0710462,0 0,-7.0710768 z"
     style="fill:#ffffff;fill-rule:evenodd;stroke:#000000;stroke-width:1pt;marker-start:none"
     transform="matrix(0.8,0,0,0.8,5.6,0)" /></marker><marker
   inkscape:stockid="EmptyDiamondLstart"
   orient="auto"
   refY="0"
   refX="0"
   id="marker3145"
   style="overflow:visible"><path
     inkscape:connector-curvature="0"
     id="path3147"
     d="M 0,-7.0710768 -7.0710894,0 0,7.0710589 7.0710462,0 0,-7.0710768 z"
     style="fill:#ffffff;fill-rule:evenodd;stroke:#000000;stroke-width:1pt;marker-start:none"
     transform="matrix(0.8,0,0,0.8,5.6,0)" /></marker><marker
   inkscape:stockid="EmptyDiamondLstart"
   orient="auto"
   refY="0"
   refX="0"
   id="marker3149"
   style="overflow:visible"><path
     inkscape:connector-curvature="0"
     id="path3151"
     d="M 0,-7.0710768 -7.0710894,0 0,7.0710589 7.0710462,0 0,-7.0710768 z"
     style="fill:#ffffff;fill-rule:evenodd;stroke:#000000;stroke-width:1pt;marker-start:none"
     transform="matrix(0.8,0,0,0.8,5.6,0)" /></marker><marker
   inkscape:stockid="EmptyDiamondLstart"
   orient="auto"
   refY="0"
   refX="0"
   id="marker3153"
   style="overflow:visible"><path
     inkscape:connector-curvature="0"
     id="path3155"
     d="M 0,-7.0710768 -7.0710894,0 0,7.0710589 7.0710462,0 0,-7.0710768 z"
     style="fill:#ffffff;fill-rule:evenodd;stroke:#000000;stroke-width:1pt;marker-start:none"
     transform="matrix(0.8,0,0,0.8,5.6,0)" /></marker><marker
   inkscape:stockid="DiamondLstart"
   orient="auto"
   refY="0"
   refX="0"
   id="marker26656"
   style="overflow:visible"><path
     inkscape:connector-curvature="0"
     id="path26658"
     d="M 0,-7.0710768 -7.0710894,0 0,7.0710589 7.0710462,0 0,-7.0710768 z"
     style="fill-rule:evenodd;stroke:#000000;stroke-width:1pt;marker-start:none"
     transform="matrix(0.8,0,0,0.8,5.6,0)" /></marker><marker
   inkscape:stockid="EmptyTriangleInL"
   orient="auto"
   refY="0"
   refX="0"
   id="marker26644"
   style="overflow:visible"><path
     inkscape:connector-curvature="0"
     id="path26646"
     d="m 5.77,0 -8.65,5 0,-10 8.65,5 z"
     style="fill:#ffffff;fill-rule:evenodd;stroke:#000000;stroke-width:1pt;marker-start:none"
     transform="matrix(-0.8,0,0,-0.8,4.8,0)" /></marker><marker
   inkscape:stockid="EmptyTriangleInL"
   orient="auto"
   refY="0"
   refX="0"
   id="marker3161"
   style="overflow:visible"><path
     inkscape:connector-curvature="0"
     id="path3163"
     d="m 5.77,0 -8.65,5 0,-10 8.65,5 z"
     style="fill:#ffffff;fill-rule:evenodd;stroke:#000000;stroke-width:1pt;marker-start:none"
     transform="matrix(-0.8,0,0,-0.8,4.8,0)" /></marker><marker
   inkscape:stockid="EmptyTriangleInL"
   orient="auto"
   refY="0"
   refX="0"
   id="marker3165"
   style="overflow:visible"><path
     inkscape:connector-curvature="0"
     id="path3167"
     d="m 5.77,0 -8.65,5 0,-10 8.65,5 z"
     style="fill:#ffffff;fill-rule:evenodd;stroke:#000000;stroke-width:1pt;marker-start:none"
     transform="matrix(-0.8,0,0,-0.8,4.8,0)" /></marker><marker
   inkscape:stockid="DiamondLstart"
   orient="auto"
   refY="0"
   refX="0"
   id="marker3169"
   style="overflow:visible"><path
     inkscape:connector-curvature="0"
     id="path3171"
     d="M 0,-7.0710768 -7.0710894,0 0,7.0710589 7.0710462,0 0,-7.0710768 z"
     style="fill-rule:evenodd;stroke:#000000;stroke-width:1pt;marker-start:none"
     transform="matrix(0.8,0,0,0.8,5.6,0)" /></marker><marker
   inkscape:stockid="DiamondLstart"
   orient="auto"
   refY="0"
   refX="0"
   id="marker3173"
   style="overflow:visible"><path
     inkscape:connector-curvature="0"
     id="path3175"
     d="M 0,-7.0710768 -7.0710894,0 0,7.0710589 7.0710462,0 0,-7.0710768 z"
     style="fill-rule:evenodd;stroke:#000000;stroke-width:1pt;marker-start:none"
     transform="matrix(0.8,0,0,0.8,5.6,0)" /></marker><marker
   inkscape:stockid="DiamondLstart"
   orient="auto"
   refY="0"
   refX="0"
   id="marker3177"
   style="overflow:visible"><path
     inkscape:connector-curvature="0"
     id="path3179"
     d="M 0,-7.0710768 -7.0710894,0 0,7.0710589 7.0710462,0 0,-7.0710768 z"
     style="fill-rule:evenodd;stroke:#000000;stroke-width:1pt;marker-start:none"
     transform="matrix(0.8,0,0,0.8,5.6,0)" /></marker><marker
   inkscape:stockid="DiamondLstart"
   orient="auto"
   refY="0"
   refX="0"
   id="marker3181"
   style="overflow:visible"><path
     inkscape:connector-curvature="0"
     id="path3183"
     d="M 0,-7.0710768 -7.0710894,0 0,7.0710589 7.0710462,0 0,-7.0710768 z"
     style="fill-rule:evenodd;stroke:#000000;stroke-width:1pt;marker-start:none"
     transform="matrix(0.8,0,0,0.8,5.6,0)" /></marker><marker
   inkscape:stockid="DiamondLstart"
   orient="auto"
   refY="0"
   refX="0"
   id="marker3185"
   style="overflow:visible"><path
     inkscape:connector-curvature="0"
     id="path3187"
     d="M 0,-7.0710768 -7.0710894,0 0,7.0710589 7.0710462,0 0,-7.0710768 z"
     style="fill-rule:evenodd;stroke:#000000;stroke-width:1pt;marker-start:none"
     transform="matrix(0.8,0,0,0.8,5.6,0)" /></marker><marker
   inkscape:stockid="DiamondLstart"
   orient="auto"
   refY="0"
   refX="0"
   id="marker3189"
   style="overflow:visible"><path
     inkscape:connector-curvature="0"
     id="path3191"
     d="M 0,-7.0710768 -7.0710894,0 0,7.0710589 7.0710462,0 0,-7.0710768 z"
     style="fill-rule:evenodd;stroke:#000000;stroke-width:1pt;marker-start:none"
     transform="matrix(0.8,0,0,0.8,5.6,0)" /></marker><marker
   inkscape:stockid="DiamondLstart"
   orient="auto"
   refY="0"
   refX="0"
   id="DiamondLstart-7"
   style="overflow:visible"><path
     inkscape:connector-curvature="0"
     id="path5332-3"
     d="M 0,-7.0710768 -7.0710894,0 0,7.0710589 7.0710462,0 0,-7.0710768 z"
     style="fill-rule:evenodd;stroke:#000000;stroke-width:1pt;marker-start:none"
     transform="matrix(0.8,0,0,0.8,5.6,0)" /></marker>




</defs><sodipodi:namedview
     pagecolor="#ffffff"
     bordercolor="#666666"
     borderopacity="1"
     objecttolerance="10"
     gridtolerance="10"
     guidetolerance="10"
     inkscape:pageopacity="0"
     inkscape:pageshadow="2"
     inkscape:window-width="1680"
     inkscape:window-height="976"
     id="namedview4"
     showgrid="false"
     inkscape:zoom="2.3884294"
     inkscape:cx="312.45048"
     inkscape:cy="518.79228"
     inkscape:window-x="0"
     inkscape:window-y="25"
     inkscape:window-maximized="1"
     inkscape:current-layer="g10" /><g
     id="g10"
     inkscape:groupmode="layer"
     inkscape:label="global_uml"
     transform="matrix(1.25,0,0,-1.25,0,672.53128)"><path
   d="m 206.20797,491.33915 94.759,0 0,-96.144 -94.759,0 z"
   style="fill:none;stroke:#000000;stroke-width:1;stroke-linecap:butt;stroke-linejoin:miter;stroke-miterlimit:4;stroke-opacity:1;stroke-dasharray:none"
   id="path104"
   inkscape:connector-curvature="0"
   sodipodi:nodetypes="ccccc" /><text
   style="font-size:11.19999981px;font-style:normal;font-variant:normal;font-weight:normal;font-stretch:normal;font-family:DejaVu Sans;-inkscape-font-specification:DejaVu Sans"
   id="text106"
   transform="scale(1,-1)"
   x="227.36926"
   y="-477.49045"><tspan
     id="tspan108"
     sodipodi:role="line"
     y="-477.49045"
     x="227.36926"
     style="font-size:11.19999981px;font-style:normal;font-variant:normal;font-weight:normal;font-stretch:normal;writing-mode:lr-tb;fill:#000000;fill-opacity:1;fill-rule:nonzero;stroke:none;font-family:DejaVu Sans;-inkscape-font-specification:DejaVu Sans">Chemical</tspan></text>











































<path
   style="fill:none;stroke:#000000;stroke-width:1;stroke-linecap:butt;stroke-linejoin:miter;stroke-miterlimit:4;stroke-opacity:1;stroke-dasharray:none"
   d="m 205.65817,473.02155 95.49343,0"
   id="path3395"
   inkscape:connector-curvature="0"
   sodipodi:nodetypes="cc" /><text
   xml:space="preserve"
   style="font-size:9.60000038px;font-style:normal;font-variant:normal;font-weight:normal;font-stretch:normal;line-height:125%;letter-spacing:0px;word-spacing:0px;fill:#000000;fill-opacity:1;stroke:none;font-family:DejaVu Sans;-inkscape-font-specification:DejaVu Sans"
   x="209.34259"
   y="-459.88382"
   id="text4309"
   sodipodi:linespacing="125%"
   transform="scale(1,-1)"><tspan
     sodipodi:role="line"
     id="tspan4311"
     x="209.34259"
     y="-459.88382"
     style="font-style:oblique;-inkscape-font-specification:DejaVu Sans Oblique">commands</tspan><tspan
     sodipodi:role="line"
     x="209.34259"
     y="-447.88382"
     id="tspan4319">add (quantity)</tspan><tspan
     sodipodi:role="line"
     x="209.34259"
     y="-435.88382"
     id="tspan4313">remove (quantity)</tspan><tspan
     sodipodi:role="line"
     x="209.34259"
     y="-423.88382"
     id="tspan4315" /><tspan
     sodipodi:role="line"
     x="209.34259"
     y="-411.88382"
     id="tspan4321"
     style="font-style:oblique;-inkscape-font-specification:DejaVu Sans Oblique">accessors</tspan><tspan
     sodipodi:role="line"
     x="209.34259"
     y="-399.88382"
     id="tspan4317">number ()</tspan></text>
</g></svg>