<?xml version="1.0" encoding="UTF-8" standalone="no"?>
<!-- Created with Inkscape (http://www.inkscape.org/) -->

<svg
   xmlns:dc="http://purl.org/dc/elements/1.1/"
   xmlns:cc="http://creativecommons.org/ns#"
   xmlns:rdf="http://www.w3.org/1999/02/22-rdf-syntax-ns#"
   xmlns:svg="http://www.w3.org/2000/svg"
   xmlns="http://www.w3.org/2000/svg"
   xmlns:sodipodi="http://sodipodi.sourceforge.net/DTD/sodipodi-0.dtd"
   xmlns:inkscape="http://www.inkscape.org/namespaces/inkscape"
   id="svg2"
   version="1.1"
   inkscape:version="0.48.2 r9819"
   width="1292.0625"
   height="672.53128"
   xml:space="preserve"
   sodipodi:docname="loading.svg"><metadata
     id="metadata8"><rdf:RDF><cc:Work
         rdf:about=""><dc:format>image/svg+xml</dc:format><dc:type
           rdf:resource="http://purl.org/dc/dcmitype/StillImage" /><dc:title /></cc:Work></rdf:RDF></metadata><defs
     id="defs6"><marker
   inkscape:stockid="Arrow2Lend"
   orient="auto"
   refY="0.0"
   refX="0.0"
   id="Arrow2Lend"
   style="overflow:visible;"><path
     id="path5264"
     style="font-size:12.0;fill-rule:evenodd;stroke-width:0.62500000;stroke-linejoin:round;"
     d="M 8.7185878,4.0337352 L -2.2072895,0.016013256 L 8.7185884,-4.0017078 C 6.9730900,-1.6296469 6.9831476,1.6157441 8.7185878,4.0337352 z "
     transform="scale(1.1) rotate(180) translate(1,0)" /></marker><marker
   inkscape:stockid="Arrow1Mend"
   orient="auto"
   refY="0.0"
   refX="0.0"
   id="Arrow1Mend"
   style="overflow:visible;"><path
     id="path5252"
     d="M 0.0,0.0 L 5.0,-5.0 L -12.5,0.0 L 5.0,5.0 L 0.0,0.0 z "
     style="fill-rule:evenodd;stroke:#000000;stroke-width:1.0pt;marker-start:none;"
     transform="scale(0.4) rotate(180) translate(10,0)" /></marker><marker
   inkscape:stockid="Arrow1Lend"
   orient="auto"
   refY="0.0"
   refX="0.0"
   id="Arrow1Lend"
   style="overflow:visible;"><path
     id="path5246"
     d="M 0.0,0.0 L 5.0,-5.0 L -12.5,0.0 L 5.0,5.0 L 0.0,0.0 z "
     style="fill-rule:evenodd;stroke:#000000;stroke-width:1.0pt;marker-start:none;"
     transform="scale(0.8) rotate(180) translate(12.5,0)" /></marker><marker
   inkscape:stockid="EmptyTriangleInL"
   orient="auto"
   refY="0.0"
   refX="0.0"
   id="EmptyTriangleInL"
   style="overflow:visible"><path
     id="path5395"
     d="M 5.77,0.0 L -2.88,5.0 L -2.88,-5.0 L 5.77,0.0 z "
     style="fill-rule:evenodd;fill:#FFFFFF;stroke:#000000;stroke-width:1.0pt;marker-start:none"
     transform="scale(-0.8) translate(-6,0)" /></marker><marker
   inkscape:stockid="EmptyDiamondLstart"
   orient="auto"
   refY="0.0"
   refX="0.0"
   id="EmptyDiamondLstart"
   style="overflow:visible"><path
     id="path5359"
     d="M 0,-7.0710768 L -7.0710894,0 L 0,7.0710589 L 7.0710462,0 L 0,-7.0710768 z "
     style="fill-rule:evenodd;fill:#FFFFFF;stroke:#000000;stroke-width:1.0pt;marker-start:none"
     transform="scale(0.8) translate(7,0)" /></marker><marker
   inkscape:stockid="DiamondLstart"
   orient="auto"
   refY="0.0"
   refX="0.0"
   id="DiamondLstart"
   style="overflow:visible"><path
     id="path5332"
     d="M 0,-7.0710768 L -7.0710894,0 L 0,7.0710589 L 7.0710462,0 L 0,-7.0710768 z "
     style="fill-rule:evenodd;stroke:#000000;stroke-width:1.0pt;marker-start:none"
     transform="scale(0.8) translate(7,0)" /></marker><marker
   inkscape:stockid="Arrow2Lend"
   orient="auto"
   refY="0"
   refX="0"
   id="marker26652"
   style="overflow:visible"><path
     inkscape:connector-curvature="0"
     id="path26654"
     style="font-size:12px;fill-rule:evenodd;stroke-width:0.625;stroke-linejoin:round"
     d="M 8.7185878,4.0337352 -2.2072895,0.01601326 8.7185884,-4.0017078 c -1.7454984,2.3720609 -1.7354408,5.6174519 -6e-7,8.035443 z"
     transform="matrix(-1.1,0,0,-1.1,-1.1,0)" /></marker><marker
   inkscape:stockid="Arrow2Lend"
   orient="auto"
   refY="0"
   refX="0"
   id="marker3135"
   style="overflow:visible"><path
     inkscape:connector-curvature="0"
     id="path3137"
     style="font-size:12px;fill-rule:evenodd;stroke-width:0.625;stroke-linejoin:round"
     d="M 8.7185878,4.0337352 -2.2072895,0.01601326 8.7185884,-4.0017078 c -1.7454984,2.3720609 -1.7354408,5.6174519 -6e-7,8.035443 z"
     transform="matrix(-1.1,0,0,-1.1,-1.1,0)" /></marker><marker
   inkscape:stockid="Arrow2Lend"
   orient="auto"
   refY="0"
   refX="0"
   id="marker3139"
   style="overflow:visible"><path
     inkscape:connector-curvature="0"
     id="path3141"
     style="font-size:12px;fill-rule:evenodd;stroke-width:0.625;stroke-linejoin:round"
     d="M 8.7185878,4.0337352 -2.2072895,0.01601326 8.7185884,-4.0017078 c -1.7454984,2.3720609 -1.7354408,5.6174519 -6e-7,8.035443 z"
     transform="matrix(-1.1,0,0,-1.1,-1.1,0)" /></marker><marker
   inkscape:stockid="EmptyDiamondLstart"
   orient="auto"
   refY="0"
   refX="0"
   id="marker26130"
   style="overflow:visible"><path
     inkscape:connector-curvature="0"
     id="path26132"
     d="M 0,-7.0710768 -7.0710894,0 0,7.0710589 7.0710462,0 0,-7.0710768 z"
     style="fill:#ffffff;fill-rule:evenodd;stroke:#000000;stroke-width:1pt;marker-start:none"
     transform="matrix(0.8,0,0,0.8,5.6,0)" /></marker><marker
   inkscape:stockid="EmptyDiamondLstart"
   orient="auto"
   refY="0"
   refX="0"
   id="marker3145"
   style="overflow:visible"><path
     inkscape:connector-curvature="0"
     id="path3147"
     d="M 0,-7.0710768 -7.0710894,0 0,7.0710589 7.0710462,0 0,-7.0710768 z"
     style="fill:#ffffff;fill-rule:evenodd;stroke:#000000;stroke-width:1pt;marker-start:none"
     transform="matrix(0.8,0,0,0.8,5.6,0)" /></marker><marker
   inkscape:stockid="EmptyDiamondLstart"
   orient="auto"
   refY="0"
   refX="0"
   id="marker3149"
   style="overflow:visible"><path
     inkscape:connector-curvature="0"
     id="path3151"
     d="M 0,-7.0710768 -7.0710894,0 0,7.0710589 7.0710462,0 0,-7.0710768 z"
     style="fill:#ffffff;fill-rule:evenodd;stroke:#000000;stroke-width:1pt;marker-start:none"
     transform="matrix(0.8,0,0,0.8,5.6,0)" /></marker><marker
   inkscape:stockid="EmptyDiamondLstart"
   orient="auto"
   refY="0"
   refX="0"
   id="marker3153"
   style="overflow:visible"><path
     inkscape:connector-curvature="0"
     id="path3155"
     d="M 0,-7.0710768 -7.0710894,0 0,7.0710589 7.0710462,0 0,-7.0710768 z"
     style="fill:#ffffff;fill-rule:evenodd;stroke:#000000;stroke-width:1pt;marker-start:none"
     transform="matrix(0.8,0,0,0.8,5.6,0)" /></marker><marker
   inkscape:stockid="DiamondLstart"
   orient="auto"
   refY="0"
   refX="0"
   id="marker26656"
   style="overflow:visible"><path
     inkscape:connector-curvature="0"
     id="path26658"
     d="M 0,-7.0710768 -7.0710894,0 0,7.0710589 7.0710462,0 0,-7.0710768 z"
     style="fill-rule:evenodd;stroke:#000000;stroke-width:1pt;marker-start:none"
     transform="matrix(0.8,0,0,0.8,5.6,0)" /></marker><marker
   inkscape:stockid="EmptyTriangleInL"
   orient="auto"
   refY="0"
   refX="0"
   id="marker26644"
   style="overflow:visible"><path
     inkscape:connector-curvature="0"
     id="path26646"
     d="m 5.77,0 -8.65,5 0,-10 8.65,5 z"
     style="fill:#ffffff;fill-rule:evenodd;stroke:#000000;stroke-width:1pt;marker-start:none"
     transform="matrix(-0.8,0,0,-0.8,4.8,0)" /></marker><marker
   inkscape:stockid="EmptyTriangleInL"
   orient="auto"
   refY="0"
   refX="0"
   id="marker3161"
   style="overflow:visible"><path
     inkscape:connector-curvature="0"
     id="path3163"
     d="m 5.77,0 -8.65,5 0,-10 8.65,5 z"
     style="fill:#ffffff;fill-rule:evenodd;stroke:#000000;stroke-width:1pt;marker-start:none"
     transform="matrix(-0.8,0,0,-0.8,4.8,0)" /></marker><marker
   inkscape:stockid="EmptyTriangleInL"
   orient="auto"
   refY="0"
   refX="0"
   id="marker3165"
   style="overflow:visible"><path
     inkscape:connector-curvature="0"
     id="path3167"
     d="m 5.77,0 -8.65,5 0,-10 8.65,5 z"
     style="fill:#ffffff;fill-rule:evenodd;stroke:#000000;stroke-width:1pt;marker-start:none"
     transform="matrix(-0.8,0,0,-0.8,4.8,0)" /></marker><marker
   inkscape:stockid="DiamondLstart"
   orient="auto"
   refY="0"
   refX="0"
   id="marker3169"
   style="overflow:visible"><path
     inkscape:connector-curvature="0"
     id="path3171"
     d="M 0,-7.0710768 -7.0710894,0 0,7.0710589 7.0710462,0 0,-7.0710768 z"
     style="fill-rule:evenodd;stroke:#000000;stroke-width:1pt;marker-start:none"
     transform="matrix(0.8,0,0,0.8,5.6,0)" /></marker><marker
   inkscape:stockid="DiamondLstart"
   orient="auto"
   refY="0"
   refX="0"
   id="marker3173"
   style="overflow:visible"><path
     inkscape:connector-curvature="0"
     id="path3175"
     d="M 0,-7.0710768 -7.0710894,0 0,7.0710589 7.0710462,0 0,-7.0710768 z"
     style="fill-rule:evenodd;stroke:#000000;stroke-width:1pt;marker-start:none"
     transform="matrix(0.8,0,0,0.8,5.6,0)" /></marker><marker
   inkscape:stockid="DiamondLstart"
   orient="auto"
   refY="0"
   refX="0"
   id="marker3177"
   style="overflow:visible"><path
     inkscape:connector-curvature="0"
     id="path3179"
     d="M 0,-7.0710768 -7.0710894,0 0,7.0710589 7.0710462,0 0,-7.0710768 z"
     style="fill-rule:evenodd;stroke:#000000;stroke-width:1pt;marker-start:none"
     transform="matrix(0.8,0,0,0.8,5.6,0)" /></marker><marker
   inkscape:stockid="DiamondLstart"
   orient="auto"
   refY="0"
   refX="0"
   id="marker3181"
   style="overflow:visible"><path
     inkscape:connector-curvature="0"
     id="path3183"
     d="M 0,-7.0710768 -7.0710894,0 0,7.0710589 7.0710462,0 0,-7.0710768 z"
     style="fill-rule:evenodd;stroke:#000000;stroke-width:1pt;marker-start:none"
     transform="matrix(0.8,0,0,0.8,5.6,0)" /></marker><marker
   inkscape:stockid="DiamondLstart"
   orient="auto"
   refY="0"
   refX="0"
   id="marker3185"
   style="overflow:visible"><path
     inkscape:connector-curvature="0"
     id="path3187"
     d="M 0,-7.0710768 -7.0710894,0 0,7.0710589 7.0710462,0 0,-7.0710768 z"
     style="fill-rule:evenodd;stroke:#000000;stroke-width:1pt;marker-start:none"
     transform="matrix(0.8,0,0,0.8,5.6,0)" /></marker><marker
   inkscape:stockid="DiamondLstart"
   orient="auto"
   refY="0"
   refX="0"
   id="marker3189"
   style="overflow:visible"><path
     inkscape:connector-curvature="0"
     id="path3191"
     d="M 0,-7.0710768 -7.0710894,0 0,7.0710589 7.0710462,0 0,-7.0710768 z"
     style="fill-rule:evenodd;stroke:#000000;stroke-width:1pt;marker-start:none"
     transform="matrix(0.8,0,0,0.8,5.6,0)" /></marker><marker
   inkscape:stockid="DiamondLstart"
   orient="auto"
   refY="0"
   refX="0"
   id="DiamondLstart-7"
   style="overflow:visible"><path
     inkscape:connector-curvature="0"
     id="path5332-3"
     d="M 0,-7.0710768 -7.0710894,0 0,7.0710589 7.0710462,0 0,-7.0710768 z"
     style="fill-rule:evenodd;stroke:#000000;stroke-width:1pt;marker-start:none"
     transform="matrix(0.8,0,0,0.8,5.6,0)" /></marker>




<marker
   style="overflow:visible"
   id="Arrow2Lend-7"
   refX="0"
   refY="0"
   orient="auto"
   inkscape:stockid="Arrow2Lend"><path
     inkscape:connector-curvature="0"
     transform="matrix(-1.1,0,0,-1.1,-1.1,0)"
     d="M 8.7185878,4.0337352 -2.2072895,0.01601326 8.7185884,-4.0017078 c -1.7454984,2.3720609 -1.7354408,5.6174519 -6e-7,8.035443 z"
     style="font-size:12px;fill-rule:evenodd;stroke-width:0.625;stroke-linejoin:round"
     id="path5734" /></marker><marker
   style="overflow:visible"
   id="marker3384"
   refX="0"
   refY="0"
   orient="auto"
   inkscape:stockid="Arrow2Lend"><path
     inkscape:connector-curvature="0"
     transform="matrix(-1.1,0,0,-1.1,-1.1,0)"
     d="M 8.7185878,4.0337352 -2.2072895,0.01601326 8.7185884,-4.0017078 c -1.7454984,2.3720609 -1.7354408,5.6174519 -6e-7,8.035443 z"
     style="font-size:12px;fill-rule:evenodd;stroke-width:0.625;stroke-linejoin:round"
     id="path3386" /></marker><marker
   inkscape:stockid="Arrow2Lend"
   orient="auto"
   refY="0"
   refX="0"
   id="Arrow2Lend-4"
   style="overflow:visible"><path
     id="path4308"
     style="font-size:12px;fill-rule:evenodd;stroke-width:0.625;stroke-linejoin:round"
     d="M 8.7185878,4.0337352 -2.2072895,0.01601326 8.7185884,-4.0017078 c -1.7454984,2.3720609 -1.7354408,5.6174519 -6e-7,8.035443 z"
     transform="matrix(-1.1,0,0,-1.1,-1.1,0)"
     inkscape:connector-curvature="0" /></marker><marker
   inkscape:stockid="Arrow2Lend"
   orient="auto"
   refY="0"
   refX="0"
   id="marker3487"
   style="overflow:visible"><path
     id="path3489"
     style="font-size:12px;fill-rule:evenodd;stroke-width:0.625;stroke-linejoin:round"
     d="M 8.7185878,4.0337352 -2.2072895,0.01601326 8.7185884,-4.0017078 c -1.7454984,2.3720609 -1.7354408,5.6174519 -6e-7,8.035443 z"
     transform="matrix(-1.1,0,0,-1.1,-1.1,0)"
     inkscape:connector-curvature="0" /></marker><marker
   style="overflow:visible"
   id="Arrow2Lend-7-1"
   refX="0"
   refY="0"
   orient="auto"
   inkscape:stockid="Arrow2Lend"><path
     inkscape:connector-curvature="0"
     transform="matrix(-1.1,0,0,-1.1,-1.1,0)"
     d="M 8.7185878,4.0337352 -2.2072895,0.01601326 8.7185884,-4.0017078 c -1.7454984,2.3720609 -1.7354408,5.6174519 -6e-7,8.035443 z"
     style="font-size:12px;fill-rule:evenodd;stroke-width:0.625;stroke-linejoin:round"
     id="path5734-9" /></marker><marker
   style="overflow:visible"
   id="marker3493"
   refX="0"
   refY="0"
   orient="auto"
   inkscape:stockid="Arrow2Lend"><path
     inkscape:connector-curvature="0"
     transform="matrix(-1.1,0,0,-1.1,-1.1,0)"
     d="M 8.7185878,4.0337352 -2.2072895,0.01601326 8.7185884,-4.0017078 c -1.7454984,2.3720609 -1.7354408,5.6174519 -6e-7,8.035443 z"
     style="font-size:12px;fill-rule:evenodd;stroke-width:0.625;stroke-linejoin:round"
     id="path3495" /></marker><marker
   inkscape:stockid="Arrow2Lend"
   orient="auto"
   refY="0"
   refX="0"
   id="Arrow2Lend-8"
   style="overflow:visible"><path
     id="path4308-6"
     style="font-size:12px;fill-rule:evenodd;stroke-width:0.625;stroke-linejoin:round"
     d="M 8.7185878,4.0337352 -2.2072895,0.01601326 8.7185884,-4.0017078 c -1.7454984,2.3720609 -1.7354408,5.6174519 -6e-7,8.035443 z"
     transform="matrix(-1.1,0,0,-1.1,-1.1,0)"
     inkscape:connector-curvature="0" /></marker><marker
   inkscape:stockid="Arrow2Lend"
   orient="auto"
   refY="0"
   refX="0"
   id="marker3565"
   style="overflow:visible"><path
     id="path3567"
     style="font-size:12px;fill-rule:evenodd;stroke-width:0.625;stroke-linejoin:round"
     d="M 8.7185878,4.0337352 -2.2072895,0.01601326 8.7185884,-4.0017078 c -1.7454984,2.3720609 -1.7354408,5.6174519 -6e-7,8.035443 z"
     transform="matrix(-1.1,0,0,-1.1,-1.1,0)"
     inkscape:connector-curvature="0" /></marker><marker
   inkscape:stockid="Arrow2Lend"
   orient="auto"
   refY="0"
   refX="0"
   id="marker3569"
   style="overflow:visible"><path
     id="path3571"
     style="font-size:12px;fill-rule:evenodd;stroke-width:0.625;stroke-linejoin:round"
     d="M 8.7185878,4.0337352 -2.2072895,0.01601326 8.7185884,-4.0017078 c -1.7454984,2.3720609 -1.7354408,5.6174519 -6e-7,8.035443 z"
     transform="matrix(-1.1,0,0,-1.1,-1.1,0)"
     inkscape:connector-curvature="0" /></marker><marker
   style="overflow:visible"
   id="Arrow2Lend-7-19"
   refX="0"
   refY="0"
   orient="auto"
   inkscape:stockid="Arrow2Lend"><path
     inkscape:connector-curvature="0"
     transform="matrix(-1.1,0,0,-1.1,-1.1,0)"
     d="M 8.7185878,4.0337352 -2.2072895,0.01601326 8.7185884,-4.0017078 c -1.7454984,2.3720609 -1.7354408,5.6174519 -6e-7,8.035443 z"
     style="font-size:12px;fill-rule:evenodd;stroke-width:0.625;stroke-linejoin:round"
     id="path5734-5" /></marker><marker
   style="overflow:visible"
   id="Arrow2Lstart"
   refX="0"
   refY="0"
   orient="auto"
   inkscape:stockid="Arrow2Lstart"><path
     inkscape:connector-curvature="0"
     transform="matrix(1.1,0,0,1.1,1.1,0)"
     d="M 8.7185878,4.0337352 -2.2072895,0.01601326 8.7185884,-4.0017078 c -1.7454984,2.3720609 -1.7354408,5.6174519 -6e-7,8.035443 z"
     style="font-size:12px;fill-rule:evenodd;stroke-width:0.625;stroke-linejoin:round"
     id="path5731" /></marker><marker
   inkscape:stockid="Arrow2Lend"
   orient="auto"
   refY="0"
   refX="0"
   id="Arrow2Lend-3"
   style="overflow:visible"><path
     id="path4308-5"
     style="font-size:12px;fill-rule:evenodd;stroke-width:0.625;stroke-linejoin:round"
     d="M 8.7185878,4.0337352 -2.2072895,0.01601326 8.7185884,-4.0017078 c -1.7454984,2.3720609 -1.7354408,5.6174519 -6e-7,8.035443 z"
     transform="matrix(-1.1,0,0,-1.1,-1.1,0)"
     inkscape:connector-curvature="0" /></marker><marker
   style="overflow:visible"
   id="Arrow2Lend-7-8"
   refX="0"
   refY="0"
   orient="auto"
   inkscape:stockid="Arrow2Lend"><path
     inkscape:connector-curvature="0"
     transform="matrix(-1.1,0,0,-1.1,-1.1,0)"
     d="M 8.7185878,4.0337352 -2.2072895,0.01601326 8.7185884,-4.0017078 c -1.7454984,2.3720609 -1.7354408,5.6174519 -6e-7,8.035443 z"
     style="font-size:12px;fill-rule:evenodd;stroke-width:0.625;stroke-linejoin:round"
     id="path5734-1" /></marker></defs><sodipodi:namedview
     pagecolor="#ffffff"
     bordercolor="#666666"
     borderopacity="1"
     objecttolerance="10"
     gridtolerance="10"
     guidetolerance="10"
     inkscape:pageopacity="0"
     inkscape:pageshadow="2"
     inkscape:window-width="1680"
     inkscape:window-height="976"
     id="namedview4"
     showgrid="false"
     inkscape:zoom="1.6888746"
     inkscape:cx="470.95536"
     inkscape:cy="295.51229"
     inkscape:window-x="0"
     inkscape:window-y="25"
     inkscape:window-maximized="1"
     inkscape:current-layer="g10"
     showguides="true"
     inkscape:guide-bbox="true"><sodipodi:guide
       orientation="-0.70710678,0.70710678"
       position="7.6974335,516.32016"
       id="guide5592" /></sodipodi:namedview><g
     id="g10"
     inkscape:groupmode="layer"
     inkscape:label="global_uml"
     transform="matrix(1.25,0,0,-1.25,0,672.53128)">













































<g
   id="g5770"
   transform="translate(115.10624,176.21202)"><path
   style="fill:#000000;stroke:#000000;stroke-width:1.24963224px;stroke-linecap:butt;stroke-linejoin:miter;stroke-opacity:1;marker-start:none;marker-end:url(#Arrow2Lend-7)"
   d="m 191.98508,140.89377 115.00853,0"
   id="path4386-6-8-6-4"
   inkscape:connector-curvature="0" /><text
   transform="scale(1,-1)"
   sodipodi:linespacing="125%"
   id="text4390-5-5-9"
   y="-148.1581"
   x="233.08215"
   style="font-size:17.49485016px;font-style:normal;font-variant:normal;font-weight:normal;font-stretch:normal;line-height:125%;letter-spacing:0px;word-spacing:0px;fill:#000000;fill-opacity:1;stroke:none;font-family:DejaVu Sans;-inkscape-font-specification:DejaVu Sans"
   xml:space="preserve"><tspan
     y="-148.1581"
     x="233.08215"
     id="tspan4392-8-0-7"
     sodipodi:role="line">k<tspan
   style="font-size:52%;baseline-shift:sub"
   id="tspan3087">AUC</tspan></tspan></text>

</g><rect
   style="fill:none;stroke:#cccccc;stroke-width:3.12408042;stroke-miterlimit:4;stroke-dasharray:none;stroke-dashoffset:0"
   id="rect7757"
   width="363.47836"
   height="122.00785"
   x="173.29012"
   y="-379.32242"
   transform="scale(1,-1)" /><g
   id="g5755"><path
   style="fill:none;stroke:#000000;stroke-width:1.16929138;stroke-linecap:butt;stroke-linejoin:miter;stroke-miterlimit:4;stroke-opacity:1;stroke-dasharray:none"
   d="m 194.33833,370.60651 c 0,0 59.18882,-22.6631 59.53061,-48.19149 0.17197,-12.84453 -31.4479,-12.37697 -29.29284,-25.04065 3.79767,-22.31587 63.31032,-24.56817 63.31032,-24.56817"
   id="path6963-4"
   inkscape:connector-curvature="0"
   sodipodi:nodetypes="cssc" /><path
   style="fill:none;stroke:#000000;stroke-width:1.16929138;stroke-linecap:butt;stroke-linejoin:miter;stroke-miterlimit:4;stroke-opacity:1;stroke-dasharray:none"
   d="m 234.38611,359.86194 c 3.3459,3.26299 14.09859,0.47318 17.92365,-2.56942 3.15337,-2.50831 -1.11489,-6.5027 0,-9.63513 0.90593,-2.54535 1.96021,-4.46386 -0.25245,-5.78113 -3.19719,-1.90337 -12.36984,-2.40877 -13.12718,0.32113 -0.75732,2.73001 -4.07304,2.10909 -5.04891,4.33591 -1.2926,2.94937 -2.1248,10.76403 0.50489,13.32864 z"
   id="path6967-0"
   inkscape:connector-curvature="0"
   sodipodi:nodetypes="sssasss" /><path
   transform="matrix(0.4677166,0,0,-0.4677166,83.081204,477.75468)"
   d="m 353.55339,288.68686 c 0,6.13681 -4.97487,11.11168 -11.11168,11.11168 -6.13681,0 -11.11168,-4.97487 -11.11168,-11.11168 0,-6.13681 4.97487,-11.11168 11.11168,-11.11168 6.13681,0 11.11168,4.97487 11.11168,11.11168 z"
   sodipodi:ry="11.111678"
   sodipodi:rx="11.111678"
   sodipodi:cy="288.68686"
   sodipodi:cx="342.44171"
   id="path7095"
   style="fill:none;stroke:#000000;stroke-width:1.25;stroke-miterlimit:4;stroke-dasharray:none"
   sodipodi:type="arc" /><path
   inkscape:connector-curvature="0"
   id="path7097"
   d="m 239.93962,338.95137 -24.09573,-5.66965"
   style="fill:none;stroke:#000000;stroke-width:0.4677166px;stroke-linecap:butt;stroke-linejoin:miter;stroke-opacity:1" /><path
   transform="matrix(0.4677166,0,0,-0.4677166,100.56241,480.58947)"
   d="m 246.47721,323.53711 c 0,17.57359 -14.24621,31.8198 -31.8198,31.8198 -17.57359,0 -31.81981,-14.24621 -31.81981,-31.8198 0,-17.57359 14.24622,-31.81981 31.81981,-31.81981 17.57359,0 31.8198,14.24622 31.8198,31.81981 z"
   sodipodi:ry="31.819805"
   sodipodi:rx="31.819805"
   sodipodi:cy="323.53711"
   sodipodi:cx="214.65741"
   id="path7099"
   style="fill:none;stroke:#000000;stroke-width:1.25;stroke-miterlimit:4;stroke-dasharray:none"
   sodipodi:type="arc" /><text
   transform="matrix(0.65651209,-0.7543155,-0.7543155,-0.65651209,0,0)"
   sodipodi:linespacing="125%"
   id="text7101"
   y="-363.48209"
   x="-127.17648"
   style="font-size:10.28976536px;font-style:normal;font-weight:normal;line-height:125%;letter-spacing:0px;word-spacing:0px;fill:#000000;fill-opacity:1;stroke:none;font-family:Bitstream Vera Sans"
   xml:space="preserve"><tspan
     y="-363.48209"
     x="-127.17648"
     id="tspan7103"
     sodipodi:role="line">AUC</tspan></text>

<path
   inkscape:connector-curvature="0"
   id="path7130"
   d="m 259.31068,350.76292 22.20587,11.81166"
   style="fill:none;stroke:#000000;stroke-width:0.5848;stroke-linecap:butt;stroke-linejoin:miter;stroke-miterlimit:4;stroke-opacity:1;stroke-dasharray:none;marker-start:url(#Arrow2Lstart);marker-end:none" /><text
   transform="scale(1,-1)"
   sodipodi:linespacing="125%"
   id="text5731"
   y="-348.63455"
   x="240.15993"
   style="font-size:11.19999981px;font-style:normal;font-variant:normal;font-weight:normal;font-stretch:normal;line-height:125%;letter-spacing:0px;word-spacing:0px;fill:#000000;fill-opacity:1;stroke:none;font-family:DejaVu Sans;-inkscape-font-specification:DejaVu Sans"
   xml:space="preserve"><tspan
     y="-348.63455"
     x="240.15993"
     id="tspan5733"
     sodipodi:role="line">L</tspan></text>

<text
   transform="scale(1,-1)"
   sodipodi:linespacing="125%"
   id="text5735"
   y="-362.37149"
   x="288.00244"
   style="font-size:11.19999981px;font-style:normal;font-variant:normal;font-weight:normal;font-stretch:normal;line-height:125%;letter-spacing:0px;word-spacing:0px;fill:#000000;fill-opacity:1;stroke:none;font-family:DejaVu Sans;-inkscape-font-specification:DejaVu Sans"
   xml:space="preserve"><tspan
     y="-362.37149"
     x="288.00244"
     id="tspan5737"
     sodipodi:role="line">E<tspan
   style="font-size:52%;baseline-shift:sub"
   id="tspan3085">AUC</tspan></tspan></text>

</g><g
   id="g5747"
   transform="translate(231.15985,95.685022)"><g
   transform="matrix(0.4677166,0,0,-0.4677166,30.306437,367.13176)"
   id="g8125"><path
     style="fill:none;stroke:#000000;stroke-width:2.5;stroke-linecap:butt;stroke-linejoin:miter;stroke-miterlimit:4;stroke-opacity:1;stroke-dasharray:none"
     d="m 354.12672,209.89495 c 0,0 126.54847,48.45482 127.27922,103.03556 0.36768,27.46222 -67.23709,26.46267 -62.62946,53.53809 8.11959,47.71243 135.36044,52.52793 135.36044,52.52793"
     id="path8106"
     inkscape:connector-curvature="0"
     sodipodi:nodetypes="cssc" /><path
     style="fill:none;stroke:#000000;stroke-width:2.5;stroke-linecap:butt;stroke-linejoin:miter;stroke-miterlimit:4;stroke-opacity:1;stroke-dasharray:none"
     d="m 439.75074,232.86739 c 7.15368,-6.97657 30.14344,-1.01167 38.32161,5.49345 6.74206,5.3628 -2.38366,13.90313 0,20.60044 1.93691,5.44207 4.19103,9.54387 -0.53974,12.36027 -6.83574,4.06957 -26.44731,5.15011 -28.06653,-0.68669 -1.61922,-5.83679 -8.70836,-4.50927 -10.79482,-9.27019 -2.76362,-6.30606 -4.54291,-23.01408 1.07948,-28.49728 z"
     id="path8108"
     inkscape:connector-curvature="0"
     sodipodi:nodetypes="sssasss" /></g><text
   transform="scale(1,-1)"
   sodipodi:linespacing="125%"
   id="text5741"
   y="-251.05476"
   x="259.10745"
   style="font-size:11.19999981px;font-style:normal;font-variant:normal;font-weight:normal;font-stretch:normal;line-height:125%;letter-spacing:0px;word-spacing:0px;fill:#000000;fill-opacity:1;stroke:none;font-family:DejaVu Sans;-inkscape-font-specification:DejaVu Sans"
   xml:space="preserve"><tspan
     y="-251.05476"
     x="259.10745"
     id="tspan5743"
     sodipodi:role="line">LE<tspan
   style="font-size:52%;baseline-shift:sub"
   id="tspan3091">AUC</tspan></tspan></text>

</g></g></svg>