<?xml version="1.0" encoding="UTF-8" standalone="no"?>
<!-- Created with Inkscape (http://www.inkscape.org/) -->

<svg
   xmlns:dc="http://purl.org/dc/elements/1.1/"
   xmlns:cc="http://creativecommons.org/ns#"
   xmlns:rdf="http://www.w3.org/1999/02/22-rdf-syntax-ns#"
   xmlns:svg="http://www.w3.org/2000/svg"
   xmlns="http://www.w3.org/2000/svg"
   xmlns:sodipodi="http://sodipodi.sourceforge.net/DTD/sodipodi-0.dtd"
   xmlns:inkscape="http://www.inkscape.org/namespaces/inkscape"
   id="svg2"
   version="1.1"
   inkscape:version="0.48.2 r9819"
   width="1292.0625"
   height="672.53128"
   xml:space="preserve"
   sodipodi:docname="doublestrandrecruitment.svg"><metadata
     id="metadata8"><rdf:RDF><cc:Work
         rdf:about=""><dc:format>image/svg+xml</dc:format><dc:type
           rdf:resource="http://purl.org/dc/dcmitype/StillImage" /><dc:title /></cc:Work></rdf:RDF></metadata><defs
     id="defs6"><marker
   inkscape:stockid="Arrow2Lend"
   orient="auto"
   refY="0.0"
   refX="0.0"
   id="Arrow2Lend"
   style="overflow:visible;"><path
     id="path5264"
     style="font-size:12.0;fill-rule:evenodd;stroke-width:0.62500000;stroke-linejoin:round;"
     d="M 8.7185878,4.0337352 L -2.2072895,0.016013256 L 8.7185884,-4.0017078 C 6.9730900,-1.6296469 6.9831476,1.6157441 8.7185878,4.0337352 z "
     transform="scale(1.1) rotate(180) translate(1,0)" /></marker><marker
   inkscape:stockid="Arrow1Mend"
   orient="auto"
   refY="0.0"
   refX="0.0"
   id="Arrow1Mend"
   style="overflow:visible;"><path
     id="path5252"
     d="M 0.0,0.0 L 5.0,-5.0 L -12.5,0.0 L 5.0,5.0 L 0.0,0.0 z "
     style="fill-rule:evenodd;stroke:#000000;stroke-width:1.0pt;marker-start:none;"
     transform="scale(0.4) rotate(180) translate(10,0)" /></marker><marker
   inkscape:stockid="Arrow1Lend"
   orient="auto"
   refY="0.0"
   refX="0.0"
   id="Arrow1Lend"
   style="overflow:visible;"><path
     id="path5246"
     d="M 0.0,0.0 L 5.0,-5.0 L -12.5,0.0 L 5.0,5.0 L 0.0,0.0 z "
     style="fill-rule:evenodd;stroke:#000000;stroke-width:1.0pt;marker-start:none;"
     transform="scale(0.8) rotate(180) translate(12.5,0)" /></marker><marker
   inkscape:stockid="EmptyTriangleInL"
   orient="auto"
   refY="0.0"
   refX="0.0"
   id="EmptyTriangleInL"
   style="overflow:visible"><path
     id="path5395"
     d="M 5.77,0.0 L -2.88,5.0 L -2.88,-5.0 L 5.77,0.0 z "
     style="fill-rule:evenodd;fill:#FFFFFF;stroke:#000000;stroke-width:1.0pt;marker-start:none"
     transform="scale(-0.8) translate(-6,0)" /></marker><marker
   inkscape:stockid="EmptyDiamondLstart"
   orient="auto"
   refY="0.0"
   refX="0.0"
   id="EmptyDiamondLstart"
   style="overflow:visible"><path
     id="path5359"
     d="M 0,-7.0710768 L -7.0710894,0 L 0,7.0710589 L 7.0710462,0 L 0,-7.0710768 z "
     style="fill-rule:evenodd;fill:#FFFFFF;stroke:#000000;stroke-width:1.0pt;marker-start:none"
     transform="scale(0.8) translate(7,0)" /></marker><marker
   inkscape:stockid="DiamondLstart"
   orient="auto"
   refY="0.0"
   refX="0.0"
   id="DiamondLstart"
   style="overflow:visible"><path
     id="path5332"
     d="M 0,-7.0710768 L -7.0710894,0 L 0,7.0710589 L 7.0710462,0 L 0,-7.0710768 z "
     style="fill-rule:evenodd;stroke:#000000;stroke-width:1.0pt;marker-start:none"
     transform="scale(0.8) translate(7,0)" /></marker><marker
   inkscape:stockid="Arrow2Lend"
   orient="auto"
   refY="0"
   refX="0"
   id="marker26652"
   style="overflow:visible"><path
     inkscape:connector-curvature="0"
     id="path26654"
     style="font-size:12px;fill-rule:evenodd;stroke-width:0.625;stroke-linejoin:round"
     d="M 8.7185878,4.0337352 -2.2072895,0.01601326 8.7185884,-4.0017078 c -1.7454984,2.3720609 -1.7354408,5.6174519 -6e-7,8.035443 z"
     transform="matrix(-1.1,0,0,-1.1,-1.1,0)" /></marker><marker
   inkscape:stockid="Arrow2Lend"
   orient="auto"
   refY="0"
   refX="0"
   id="marker3135"
   style="overflow:visible"><path
     inkscape:connector-curvature="0"
     id="path3137"
     style="font-size:12px;fill-rule:evenodd;stroke-width:0.625;stroke-linejoin:round"
     d="M 8.7185878,4.0337352 -2.2072895,0.01601326 8.7185884,-4.0017078 c -1.7454984,2.3720609 -1.7354408,5.6174519 -6e-7,8.035443 z"
     transform="matrix(-1.1,0,0,-1.1,-1.1,0)" /></marker><marker
   inkscape:stockid="Arrow2Lend"
   orient="auto"
   refY="0"
   refX="0"
   id="marker3139"
   style="overflow:visible"><path
     inkscape:connector-curvature="0"
     id="path3141"
     style="font-size:12px;fill-rule:evenodd;stroke-width:0.625;stroke-linejoin:round"
     d="M 8.7185878,4.0337352 -2.2072895,0.01601326 8.7185884,-4.0017078 c -1.7454984,2.3720609 -1.7354408,5.6174519 -6e-7,8.035443 z"
     transform="matrix(-1.1,0,0,-1.1,-1.1,0)" /></marker><marker
   inkscape:stockid="EmptyDiamondLstart"
   orient="auto"
   refY="0"
   refX="0"
   id="marker26130"
   style="overflow:visible"><path
     inkscape:connector-curvature="0"
     id="path26132"
     d="M 0,-7.0710768 -7.0710894,0 0,7.0710589 7.0710462,0 0,-7.0710768 z"
     style="fill:#ffffff;fill-rule:evenodd;stroke:#000000;stroke-width:1pt;marker-start:none"
     transform="matrix(0.8,0,0,0.8,5.6,0)" /></marker><marker
   inkscape:stockid="EmptyDiamondLstart"
   orient="auto"
   refY="0"
   refX="0"
   id="marker3145"
   style="overflow:visible"><path
     inkscape:connector-curvature="0"
     id="path3147"
     d="M 0,-7.0710768 -7.0710894,0 0,7.0710589 7.0710462,0 0,-7.0710768 z"
     style="fill:#ffffff;fill-rule:evenodd;stroke:#000000;stroke-width:1pt;marker-start:none"
     transform="matrix(0.8,0,0,0.8,5.6,0)" /></marker><marker
   inkscape:stockid="EmptyDiamondLstart"
   orient="auto"
   refY="0"
   refX="0"
   id="marker3149"
   style="overflow:visible"><path
     inkscape:connector-curvature="0"
     id="path3151"
     d="M 0,-7.0710768 -7.0710894,0 0,7.0710589 7.0710462,0 0,-7.0710768 z"
     style="fill:#ffffff;fill-rule:evenodd;stroke:#000000;stroke-width:1pt;marker-start:none"
     transform="matrix(0.8,0,0,0.8,5.6,0)" /></marker><marker
   inkscape:stockid="EmptyDiamondLstart"
   orient="auto"
   refY="0"
   refX="0"
   id="marker3153"
   style="overflow:visible"><path
     inkscape:connector-curvature="0"
     id="path3155"
     d="M 0,-7.0710768 -7.0710894,0 0,7.0710589 7.0710462,0 0,-7.0710768 z"
     style="fill:#ffffff;fill-rule:evenodd;stroke:#000000;stroke-width:1pt;marker-start:none"
     transform="matrix(0.8,0,0,0.8,5.6,0)" /></marker><marker
   inkscape:stockid="DiamondLstart"
   orient="auto"
   refY="0"
   refX="0"
   id="marker26656"
   style="overflow:visible"><path
     inkscape:connector-curvature="0"
     id="path26658"
     d="M 0,-7.0710768 -7.0710894,0 0,7.0710589 7.0710462,0 0,-7.0710768 z"
     style="fill-rule:evenodd;stroke:#000000;stroke-width:1pt;marker-start:none"
     transform="matrix(0.8,0,0,0.8,5.6,0)" /></marker><marker
   inkscape:stockid="EmptyTriangleInL"
   orient="auto"
   refY="0"
   refX="0"
   id="marker26644"
   style="overflow:visible"><path
     inkscape:connector-curvature="0"
     id="path26646"
     d="m 5.77,0 -8.65,5 0,-10 8.65,5 z"
     style="fill:#ffffff;fill-rule:evenodd;stroke:#000000;stroke-width:1pt;marker-start:none"
     transform="matrix(-0.8,0,0,-0.8,4.8,0)" /></marker><marker
   inkscape:stockid="EmptyTriangleInL"
   orient="auto"
   refY="0"
   refX="0"
   id="marker3161"
   style="overflow:visible"><path
     inkscape:connector-curvature="0"
     id="path3163"
     d="m 5.77,0 -8.65,5 0,-10 8.65,5 z"
     style="fill:#ffffff;fill-rule:evenodd;stroke:#000000;stroke-width:1pt;marker-start:none"
     transform="matrix(-0.8,0,0,-0.8,4.8,0)" /></marker><marker
   inkscape:stockid="EmptyTriangleInL"
   orient="auto"
   refY="0"
   refX="0"
   id="marker3165"
   style="overflow:visible"><path
     inkscape:connector-curvature="0"
     id="path3167"
     d="m 5.77,0 -8.65,5 0,-10 8.65,5 z"
     style="fill:#ffffff;fill-rule:evenodd;stroke:#000000;stroke-width:1pt;marker-start:none"
     transform="matrix(-0.8,0,0,-0.8,4.8,0)" /></marker><marker
   inkscape:stockid="DiamondLstart"
   orient="auto"
   refY="0"
   refX="0"
   id="marker3169"
   style="overflow:visible"><path
     inkscape:connector-curvature="0"
     id="path3171"
     d="M 0,-7.0710768 -7.0710894,0 0,7.0710589 7.0710462,0 0,-7.0710768 z"
     style="fill-rule:evenodd;stroke:#000000;stroke-width:1pt;marker-start:none"
     transform="matrix(0.8,0,0,0.8,5.6,0)" /></marker><marker
   inkscape:stockid="DiamondLstart"
   orient="auto"
   refY="0"
   refX="0"
   id="marker3173"
   style="overflow:visible"><path
     inkscape:connector-curvature="0"
     id="path3175"
     d="M 0,-7.0710768 -7.0710894,0 0,7.0710589 7.0710462,0 0,-7.0710768 z"
     style="fill-rule:evenodd;stroke:#000000;stroke-width:1pt;marker-start:none"
     transform="matrix(0.8,0,0,0.8,5.6,0)" /></marker><marker
   inkscape:stockid="DiamondLstart"
   orient="auto"
   refY="0"
   refX="0"
   id="marker3177"
   style="overflow:visible"><path
     inkscape:connector-curvature="0"
     id="path3179"
     d="M 0,-7.0710768 -7.0710894,0 0,7.0710589 7.0710462,0 0,-7.0710768 z"
     style="fill-rule:evenodd;stroke:#000000;stroke-width:1pt;marker-start:none"
     transform="matrix(0.8,0,0,0.8,5.6,0)" /></marker><marker
   inkscape:stockid="DiamondLstart"
   orient="auto"
   refY="0"
   refX="0"
   id="marker3181"
   style="overflow:visible"><path
     inkscape:connector-curvature="0"
     id="path3183"
     d="M 0,-7.0710768 -7.0710894,0 0,7.0710589 7.0710462,0 0,-7.0710768 z"
     style="fill-rule:evenodd;stroke:#000000;stroke-width:1pt;marker-start:none"
     transform="matrix(0.8,0,0,0.8,5.6,0)" /></marker><marker
   inkscape:stockid="DiamondLstart"
   orient="auto"
   refY="0"
   refX="0"
   id="marker3185"
   style="overflow:visible"><path
     inkscape:connector-curvature="0"
     id="path3187"
     d="M 0,-7.0710768 -7.0710894,0 0,7.0710589 7.0710462,0 0,-7.0710768 z"
     style="fill-rule:evenodd;stroke:#000000;stroke-width:1pt;marker-start:none"
     transform="matrix(0.8,0,0,0.8,5.6,0)" /></marker><marker
   inkscape:stockid="DiamondLstart"
   orient="auto"
   refY="0"
   refX="0"
   id="marker3189"
   style="overflow:visible"><path
     inkscape:connector-curvature="0"
     id="path3191"
     d="M 0,-7.0710768 -7.0710894,0 0,7.0710589 7.0710462,0 0,-7.0710768 z"
     style="fill-rule:evenodd;stroke:#000000;stroke-width:1pt;marker-start:none"
     transform="matrix(0.8,0,0,0.8,5.6,0)" /></marker><marker
   inkscape:stockid="DiamondLstart"
   orient="auto"
   refY="0"
   refX="0"
   id="DiamondLstart-7"
   style="overflow:visible"><path
     inkscape:connector-curvature="0"
     id="path5332-3"
     d="M 0,-7.0710768 -7.0710894,0 0,7.0710589 7.0710462,0 0,-7.0710768 z"
     style="fill-rule:evenodd;stroke:#000000;stroke-width:1pt;marker-start:none"
     transform="matrix(0.8,0,0,0.8,5.6,0)" /></marker>




<marker
   style="overflow:visible"
   id="Arrow2Lend-7"
   refX="0"
   refY="0"
   orient="auto"
   inkscape:stockid="Arrow2Lend"><path
     inkscape:connector-curvature="0"
     transform="matrix(-1.1,0,0,-1.1,-1.1,0)"
     d="M 8.7185878,4.0337352 -2.2072895,0.01601326 8.7185884,-4.0017078 c -1.7454984,2.3720609 -1.7354408,5.6174519 -6e-7,8.035443 z"
     style="font-size:12px;fill-rule:evenodd;stroke-width:0.625;stroke-linejoin:round"
     id="path5734" /></marker><marker
   style="overflow:visible"
   id="marker3384"
   refX="0"
   refY="0"
   orient="auto"
   inkscape:stockid="Arrow2Lend"><path
     inkscape:connector-curvature="0"
     transform="matrix(-1.1,0,0,-1.1,-1.1,0)"
     d="M 8.7185878,4.0337352 -2.2072895,0.01601326 8.7185884,-4.0017078 c -1.7454984,2.3720609 -1.7354408,5.6174519 -6e-7,8.035443 z"
     style="font-size:12px;fill-rule:evenodd;stroke-width:0.625;stroke-linejoin:round"
     id="path3386" /></marker><marker
   inkscape:stockid="Arrow2Lend"
   orient="auto"
   refY="0"
   refX="0"
   id="Arrow2Lend-4"
   style="overflow:visible"><path
     id="path4308"
     style="font-size:12px;fill-rule:evenodd;stroke-width:0.625;stroke-linejoin:round"
     d="M 8.7185878,4.0337352 -2.2072895,0.01601326 8.7185884,-4.0017078 c -1.7454984,2.3720609 -1.7354408,5.6174519 -6e-7,8.035443 z"
     transform="matrix(-1.1,0,0,-1.1,-1.1,0)"
     inkscape:connector-curvature="0" /></marker><marker
   inkscape:stockid="Arrow2Lend"
   orient="auto"
   refY="0"
   refX="0"
   id="marker3487"
   style="overflow:visible"><path
     id="path3489"
     style="font-size:12px;fill-rule:evenodd;stroke-width:0.625;stroke-linejoin:round"
     d="M 8.7185878,4.0337352 -2.2072895,0.01601326 8.7185884,-4.0017078 c -1.7454984,2.3720609 -1.7354408,5.6174519 -6e-7,8.035443 z"
     transform="matrix(-1.1,0,0,-1.1,-1.1,0)"
     inkscape:connector-curvature="0" /></marker><marker
   style="overflow:visible"
   id="Arrow2Lend-7-1"
   refX="0"
   refY="0"
   orient="auto"
   inkscape:stockid="Arrow2Lend"><path
     inkscape:connector-curvature="0"
     transform="matrix(-1.1,0,0,-1.1,-1.1,0)"
     d="M 8.7185878,4.0337352 -2.2072895,0.01601326 8.7185884,-4.0017078 c -1.7454984,2.3720609 -1.7354408,5.6174519 -6e-7,8.035443 z"
     style="font-size:12px;fill-rule:evenodd;stroke-width:0.625;stroke-linejoin:round"
     id="path5734-9" /></marker><marker
   style="overflow:visible"
   id="marker3493"
   refX="0"
   refY="0"
   orient="auto"
   inkscape:stockid="Arrow2Lend"><path
     inkscape:connector-curvature="0"
     transform="matrix(-1.1,0,0,-1.1,-1.1,0)"
     d="M 8.7185878,4.0337352 -2.2072895,0.01601326 8.7185884,-4.0017078 c -1.7454984,2.3720609 -1.7354408,5.6174519 -6e-7,8.035443 z"
     style="font-size:12px;fill-rule:evenodd;stroke-width:0.625;stroke-linejoin:round"
     id="path3495" /></marker><marker
   inkscape:stockid="Arrow2Lend"
   orient="auto"
   refY="0"
   refX="0"
   id="Arrow2Lend-8"
   style="overflow:visible"><path
     id="path4308-6"
     style="font-size:12px;fill-rule:evenodd;stroke-width:0.625;stroke-linejoin:round"
     d="M 8.7185878,4.0337352 -2.2072895,0.01601326 8.7185884,-4.0017078 c -1.7454984,2.3720609 -1.7354408,5.6174519 -6e-7,8.035443 z"
     transform="matrix(-1.1,0,0,-1.1,-1.1,0)"
     inkscape:connector-curvature="0" /></marker><marker
   inkscape:stockid="Arrow2Lend"
   orient="auto"
   refY="0"
   refX="0"
   id="marker3565"
   style="overflow:visible"><path
     id="path3567"
     style="font-size:12px;fill-rule:evenodd;stroke-width:0.625;stroke-linejoin:round"
     d="M 8.7185878,4.0337352 -2.2072895,0.01601326 8.7185884,-4.0017078 c -1.7454984,2.3720609 -1.7354408,5.6174519 -6e-7,8.035443 z"
     transform="matrix(-1.1,0,0,-1.1,-1.1,0)"
     inkscape:connector-curvature="0" /></marker><marker
   inkscape:stockid="Arrow2Lend"
   orient="auto"
   refY="0"
   refX="0"
   id="marker3569"
   style="overflow:visible"><path
     id="path3571"
     style="font-size:12px;fill-rule:evenodd;stroke-width:0.625;stroke-linejoin:round"
     d="M 8.7185878,4.0337352 -2.2072895,0.01601326 8.7185884,-4.0017078 c -1.7454984,2.3720609 -1.7354408,5.6174519 -6e-7,8.035443 z"
     transform="matrix(-1.1,0,0,-1.1,-1.1,0)"
     inkscape:connector-curvature="0" /></marker><marker
   style="overflow:visible"
   id="Arrow2Lend-7-19"
   refX="0"
   refY="0"
   orient="auto"
   inkscape:stockid="Arrow2Lend"><path
     inkscape:connector-curvature="0"
     transform="matrix(-1.1,0,0,-1.1,-1.1,0)"
     d="M 8.7185878,4.0337352 -2.2072895,0.01601326 8.7185884,-4.0017078 c -1.7454984,2.3720609 -1.7354408,5.6174519 -6e-7,8.035443 z"
     style="font-size:12px;fill-rule:evenodd;stroke-width:0.625;stroke-linejoin:round"
     id="path5734-5" /></marker><marker
   style="overflow:visible"
   id="Arrow2Lstart"
   refX="0"
   refY="0"
   orient="auto"
   inkscape:stockid="Arrow2Lstart"><path
     inkscape:connector-curvature="0"
     transform="matrix(1.1,0,0,1.1,1.1,0)"
     d="M 8.7185878,4.0337352 -2.2072895,0.01601326 8.7185884,-4.0017078 c -1.7454984,2.3720609 -1.7354408,5.6174519 -6e-7,8.035443 z"
     style="font-size:12px;fill-rule:evenodd;stroke-width:0.625;stroke-linejoin:round"
     id="path5731" /></marker><marker
   inkscape:stockid="Arrow2Lend"
   orient="auto"
   refY="0"
   refX="0"
   id="Arrow2Lend-3"
   style="overflow:visible"><path
     id="path4308-5"
     style="font-size:12px;fill-rule:evenodd;stroke-width:0.625;stroke-linejoin:round"
     d="M 8.7185878,4.0337352 -2.2072895,0.01601326 8.7185884,-4.0017078 c -1.7454984,2.3720609 -1.7354408,5.6174519 -6e-7,8.035443 z"
     transform="matrix(-1.1,0,0,-1.1,-1.1,0)"
     inkscape:connector-curvature="0" /></marker><marker
   style="overflow:visible"
   id="Arrow2Lend-7-8"
   refX="0"
   refY="0"
   orient="auto"
   inkscape:stockid="Arrow2Lend"><path
     inkscape:connector-curvature="0"
     transform="matrix(-1.1,0,0,-1.1,-1.1,0)"
     d="M 8.7185878,4.0337352 -2.2072895,0.01601326 8.7185884,-4.0017078 c -1.7454984,2.3720609 -1.7354408,5.6174519 -6e-7,8.035443 z"
     style="font-size:12px;fill-rule:evenodd;stroke-width:0.625;stroke-linejoin:round"
     id="path5734-1" /></marker>







<marker
   inkscape:stockid="Arrow1Mend"
   orient="auto"
   refY="0"
   refX="0"
   id="Arrow1Mend-8"
   style="overflow:visible"><path
     inkscape:connector-curvature="0"
     id="path5252-9"
     d="M 0,0 5,-5 -12.5,0 5,5 0,0 z"
     style="fill-rule:evenodd;stroke:#000000;stroke-width:1pt;marker-start:none"
     transform="matrix(-0.4,0,0,-0.4,-4,0)" /></marker></defs><sodipodi:namedview
     pagecolor="#ffffff"
     bordercolor="#666666"
     borderopacity="1"
     objecttolerance="10"
     gridtolerance="10"
     guidetolerance="10"
     inkscape:pageopacity="0"
     inkscape:pageshadow="2"
     inkscape:window-width="1680"
     inkscape:window-height="976"
     id="namedview4"
     showgrid="false"
     inkscape:zoom="1.6888746"
     inkscape:cx="357.8623"
     inkscape:cy="295.51229"
     inkscape:window-x="0"
     inkscape:window-y="25"
     inkscape:window-maximized="1"
     inkscape:current-layer="g10"
     showguides="true"
     inkscape:guide-bbox="true"><sodipodi:guide
       orientation="-0.70710678,0.70710678"
       position="7.6974335,516.32016"
       id="guide5592" /></sodipodi:namedview><g
     id="g10"
     inkscape:groupmode="layer"
     inkscape:label="global_uml"
     transform="matrix(1.25,0,0,-1.25,0,672.53128)">













































<g
   id="g5770"
   transform="translate(115.10624,176.21202)"><path
   style="fill:#000000;stroke:#000000;stroke-width:1.24963224px;stroke-linecap:butt;stroke-linejoin:miter;stroke-opacity:1;marker-start:none;marker-end:url(#Arrow2Lend-7)"
   d="m 191.98508,140.89377 115.00853,0"
   id="path4386-6-8-6-4"
   inkscape:connector-curvature="0" /><text
   transform="scale(1,-1)"
   sodipodi:linespacing="125%"
   id="text4390-5-5-9"
   y="-148.1581"
   x="233.08215"
   style="font-size:17.49485016px;font-style:normal;font-variant:normal;font-weight:normal;font-stretch:normal;line-height:125%;letter-spacing:0px;word-spacing:0px;fill:#000000;fill-opacity:1;stroke:none;font-family:DejaVu Sans;-inkscape-font-specification:DejaVu Sans"
   xml:space="preserve"><tspan
     y="-148.1581"
     x="233.08215"
     id="tspan4392-8-0-7"
     sodipodi:role="line">k</tspan></text>


</g><rect
   style="fill:none;stroke:#cccccc;stroke-width:3.12408042;stroke-miterlimit:4;stroke-dasharray:none;stroke-dashoffset:0"
   id="rect7757"
   width="363.47836"
   height="122.00785"
   x="173.29012"
   y="-379.32242"
   transform="scale(1,-1)" /><path
   sodipodi:nodetypes="cssc"
   inkscape:connector-curvature="0"
   id="path6963-4"
   d="m 194.33833,370.60651 c 0,0 55.39931,-27.39998 55.7411,-52.92837 0.17197,-12.84453 -27.65839,-7.64009 -25.50333,-20.30377 3.79767,-22.31587 38.20484,-33.09456 38.20484,-33.09456"
   style="fill:none;stroke:#000000;stroke-width:1.16929138;stroke-linecap:butt;stroke-linejoin:miter;stroke-miterlimit:4;stroke-opacity:1;stroke-dasharray:none" /><path
   sodipodi:nodetypes="sssasss"
   inkscape:connector-curvature="0"
   id="path6967-0"
   d="m 253.58611,359.86194 c 3.3459,3.26299 14.09859,0.47318 17.92365,-2.56942 3.15337,-2.50831 -1.11489,-6.5027 0,-9.63513 0.90593,-2.54535 1.96021,-4.46386 -0.25245,-5.78113 -3.19719,-1.90337 -12.36984,-2.40877 -13.12718,0.32113 -0.75732,2.73001 -4.07304,2.10909 -5.04891,4.33591 -1.2926,2.94937 -2.1248,10.76403 0.50489,13.32864 z"
   style="fill:none;stroke:#000000;stroke-width:1.16929138;stroke-linecap:butt;stroke-linejoin:miter;stroke-miterlimit:4;stroke-opacity:1;stroke-dasharray:none" /><text
   xml:space="preserve"
   style="font-size:11.19999981px;font-style:normal;font-variant:normal;font-weight:normal;font-stretch:normal;line-height:125%;letter-spacing:0px;word-spacing:0px;fill:#000000;fill-opacity:1;stroke:none;font-family:DejaVu Sans;-inkscape-font-specification:DejaVu Sans"
   x="259.35999"
   y="-348.63455"
   id="text5731"
   sodipodi:linespacing="125%"
   transform="scale(1,-1)"><tspan
     sodipodi:role="line"
     id="tspan5733"
     x="259.35999"
     y="-348.63455">A</tspan></text>
<path
   sodipodi:nodetypes="csssc"
   inkscape:connector-curvature="0"
   id="path6963-4-1"
   d="m 195.75433,372.90291 c 0,0 14.40669,-6.68595 29.90311,-13.41818 30.05568,-13.05733 76.29822,-19.90687 76.52263,-36.66806 0.17197,-12.84453 -13.92144,-11.42959 -11.76638,-24.09327 3.79767,-22.31587 45.78386,-25.51555 45.78386,-25.51555"
   style="fill:none;stroke:#000000;stroke-width:1.16929138;stroke-linecap:butt;stroke-linejoin:miter;stroke-miterlimit:4;stroke-opacity:1;stroke-dasharray:none" /><path
   style="fill:none;stroke:#000000;stroke-width:1.16929138;stroke-linecap:butt;stroke-linejoin:miter;stroke-miterlimit:4;stroke-opacity:1;stroke-dasharray:none"
   d="m 267.10216,343.24431 c 17.65977,-5.91351 31.75426,-12.13971 31.87791,-21.37502 0.17197,-12.84453 -13.92144,-11.42959 -11.76638,-24.09327 3.79767,-22.31587 45.78386,-25.51555 45.78386,-25.51555"
   id="path3123"
   inkscape:connector-curvature="0"
   sodipodi:nodetypes="cssc" /><path
   sodipodi:nodetypes="sssasss"
   inkscape:connector-curvature="0"
   id="path6967-0-2"
   d="m 194.52116,328.31595 c 3.3459,3.26299 10.30908,0.47318 14.13414,-2.56942 3.15337,-2.50831 9.30626,2.02369 7.57902,-4.42456 -0.69906,-2.60976 -0.81339,-8.79721 -4.04196,-10.9917 -3.61997,-2.46054 -12.36984,-2.40877 -13.12718,0.32113 -0.75732,2.73001 -4.07304,2.10909 -5.04891,4.33591 -1.2926,2.94937 -2.1248,10.76403 0.50489,13.32864 z"
   style="fill:none;stroke:#000000;stroke-width:1.16929138;stroke-linecap:butt;stroke-linejoin:miter;stroke-miterlimit:4;stroke-opacity:1;stroke-dasharray:none" /><text
   xml:space="preserve"
   style="font-size:11.19999981px;font-style:normal;font-variant:normal;font-weight:normal;font-stretch:normal;line-height:125%;letter-spacing:0px;word-spacing:0px;fill:#000000;fill-opacity:1;stroke:none;font-family:DejaVu Sans;-inkscape-font-specification:DejaVu Sans"
   x="184.26471"
   y="-298.42361"
   id="text3143"
   sodipodi:linespacing="125%"
   transform="scale(1,-1)"><tspan
     sodipodi:role="line"
     id="tspan3145"
     x="184.26471"
     y="-298.42361">B<tspan
   style="font-size:7.28010273px;baseline-shift:sub"
   id="tspan3147">free</tspan></tspan></text>
<path
   style="fill:none;stroke:#000000;stroke-width:1px;stroke-linecap:butt;stroke-linejoin:miter;stroke-opacity:1"
   d="m 254.01531,279.37003 -8.88166,13.61854"
   id="path3149"
   inkscape:connector-curvature="0"
   transform="matrix(0.8,0,0,-0.8,0,538.02502)" /><path
   style="fill:none;stroke:#000000;stroke-width:1px;stroke-linecap:butt;stroke-linejoin:miter;stroke-opacity:1;marker-end:url(#Arrow1Mend)"
   d="m 276.5155,266.93571 39.67139,-21.90808"
   id="path3152"
   inkscape:connector-curvature="0"
   transform="matrix(0.8,0,0,-0.8,0,538.02502)" /><path
   sodipodi:nodetypes="cssc"
   inkscape:connector-curvature="0"
   id="path6963-4-3"
   d="m 390.4271,371.29145 c 0,0 55.39931,-27.39998 55.7411,-52.92837 0.17197,-12.84453 -27.65839,-7.64009 -25.50333,-20.30377 3.79767,-22.31587 38.20484,-33.09456 38.20484,-33.09456"
   style="fill:none;stroke:#000000;stroke-width:1.16929138;stroke-linecap:butt;stroke-linejoin:miter;stroke-miterlimit:4;stroke-opacity:1;stroke-dasharray:none" /><path
   sodipodi:nodetypes="sssasss"
   inkscape:connector-curvature="0"
   id="path6967-0-9"
   d="m 449.67488,360.54688 c 3.3459,3.26299 14.09859,0.47318 17.92365,-2.56942 3.15337,-2.50831 -1.11489,-6.5027 0,-9.63513 0.90593,-2.54535 1.96021,-4.46386 -0.25245,-5.78113 -3.19719,-1.90337 -12.36984,-2.40877 -13.12718,0.32113 -0.75732,2.73001 -4.07304,2.10909 -5.04891,4.33591 -1.2926,2.94937 -2.1248,10.76403 0.50489,13.32864 z"
   style="fill:none;stroke:#000000;stroke-width:1.16929138;stroke-linecap:butt;stroke-linejoin:miter;stroke-miterlimit:4;stroke-opacity:1;stroke-dasharray:none" /><text
   xml:space="preserve"
   style="font-size:11.19999981px;font-style:normal;font-variant:normal;font-weight:normal;font-stretch:normal;line-height:125%;letter-spacing:0px;word-spacing:0px;fill:#000000;fill-opacity:1;stroke:none;font-family:DejaVu Sans;-inkscape-font-specification:DejaVu Sans"
   x="455.44873"
   y="-349.31952"
   id="text5731-9"
   sodipodi:linespacing="125%"
   transform="scale(1,-1)"><tspan
     sodipodi:role="line"
     id="tspan5733-3"
     x="455.44873"
     y="-349.31952">A</tspan></text>
<path
   sodipodi:nodetypes="csssc"
   inkscape:connector-curvature="0"
   id="path6963-4-1-7"
   d="m 391.8431,373.58785 c 0,0 14.40669,-6.68595 29.90311,-13.41818 30.05568,-13.05733 76.29822,-19.90687 76.52263,-36.66806 0.17197,-12.84453 -13.92144,-11.42959 -11.76638,-24.09327 3.79767,-22.31587 45.78386,-25.51555 45.78386,-25.51555"
   style="fill:none;stroke:#000000;stroke-width:1.16929138;stroke-linecap:butt;stroke-linejoin:miter;stroke-miterlimit:4;stroke-opacity:1;stroke-dasharray:none" /><path
   style="fill:none;stroke:#000000;stroke-width:1.16929138;stroke-linecap:butt;stroke-linejoin:miter;stroke-miterlimit:4;stroke-opacity:1;stroke-dasharray:none"
   d="m 463.19093,343.92925 c 17.65977,-5.91351 31.75426,-12.13971 31.87791,-21.37502 0.17197,-12.84453 -13.92144,-11.42959 -11.76638,-24.09327 3.79767,-22.31587 45.78386,-25.51555 45.78386,-25.51555"
   id="path3123-2"
   inkscape:connector-curvature="0"
   sodipodi:nodetypes="cssc" /><path
   sodipodi:nodetypes="sssasss"
   inkscape:connector-curvature="0"
   id="path6967-0-2-8"
   d="m 426.13655,344.15891 c 3.3459,3.26299 10.30908,0.47318 14.13414,-2.56942 3.15337,-2.50831 9.30626,2.02369 7.57902,-4.42456 -0.69906,-2.60976 -0.81339,-8.79721 -4.04196,-10.9917 -3.61997,-2.46054 -12.36984,-2.40877 -13.12718,0.32113 -0.75732,2.73001 -4.07304,2.10909 -5.04891,4.33591 -1.2926,2.94937 -2.1248,10.76403 0.50489,13.32864 z"
   style="fill:none;stroke:#000000;stroke-width:1.16929138;stroke-linecap:butt;stroke-linejoin:miter;stroke-miterlimit:4;stroke-opacity:1;stroke-dasharray:none" /><text
   xml:space="preserve"
   style="font-size:11.19999981px;font-style:normal;font-variant:normal;font-weight:normal;font-stretch:normal;line-height:125%;letter-spacing:0px;word-spacing:0px;fill:#000000;fill-opacity:1;stroke:none;font-family:DejaVu Sans;-inkscape-font-specification:DejaVu Sans"
   x="381.77451"
   y="-338.89841"
   id="text3143-0"
   sodipodi:linespacing="125%"
   transform="scale(1,-1)"><tspan
     sodipodi:role="line"
     id="tspan3145-2"
     x="381.77451"
     y="-338.89841">B<tspan
   style="font-size:52.00042725%;baseline-shift:sub"
   id="tspan4455">bound</tspan></tspan></text>
<path
   style="fill:none;stroke:#000000;stroke-width:0.80000001px;stroke-linecap:butt;stroke-linejoin:miter;stroke-opacity:1"
   d="m 428.19601,339.37203 -18.47385,2.36844"
   id="path3149-3"
   inkscape:connector-curvature="0"
   sodipodi:nodetypes="cc" /></g></svg>